<?xml version="1.0" standalone="no"?>
<!DOCTYPE svg PUBLIC "-//W3C//DTD SVG 20010904//EN"
 "http://www.w3.org/TR/2001/REC-SVG-20010904/DTD/svg10.dtd">
<svg version="1.0" xmlns="http://www.w3.org/2000/svg"
 width="446.000000pt" height="559.000000pt" viewBox="0 0 446.000000 559.000000"
 preserveAspectRatio="xMidYMid meet">

<g transform="translate(0.000000,559.000000) scale(0.100000,-0.100000)"
fill="#caab85" stroke="none">
<path d="M1948 5199 c-64 -4 -127 -13 -139 -19 -21 -12 -21 -12 12 -46 34 -35
44 -42 187 -134 129 -83 193 -163 296 -368 l37 -74 -11 -1271 c-10 -1300 -22
-1911 -41 -2142 -22 -276 -68 -402 -193 -530 -80 -82 -103 -96 -199 -119 -56
-14 -81 -15 -134 -7 -113 17 -177 79 -208 198 -30 117 -18 206 56 388 66 165
82 249 77 399 -7 188 -48 281 -179 414 -121 122 -274 191 -444 199 -194 9
-363 -53 -491 -182 -82 -83 -123 -160 -156 -293 -27 -109 -30 -315 -5 -438 84
-420 405 -729 907 -873 283 -80 626 -100 954 -55 338 46 578 149 793 341 116
103 184 203 295 432 l99 204 20 1715 20 1716 70 102 c80 118 167 204 258 254
122 68 181 111 187 137 4 13 2 29 -3 34 -5 5 -70 14 -144 19 -161 11 -1755 10
-1921 -1z"/>
</g>
</svg>
