<?xml version="1.0" standalone="no"?>
<!DOCTYPE svg PUBLIC "-//W3C//DTD SVG 20010904//EN"
 "http://www.w3.org/TR/2001/REC-SVG-20010904/DTD/svg10.dtd">
<svg version="1.0" xmlns="http://www.w3.org/2000/svg"
 width="375.000000pt" height="174.000000pt" viewBox="0 0 375.000000 174.000000"
 preserveAspectRatio="xMidYMid meet">

<g transform="translate(0.000000,174.000000) scale(0.100000,-0.100000)"
fill="#2B4842" stroke="none">
<path d="M453 1678 c1 -7 22 -24 47 -38 32 -18 52 -38 68 -70 l23 -45 -4 -445
c-3 -481 -5 -494 -58 -551 -35 -38 -99 -41 -123 -7 -22 31 -20 81 4 128 23 46
26 119 6 158 -50 95 -168 125 -254 63 -41 -29 -62 -78 -62 -148 0 -187 181
-308 435 -290 156 11 257 72 311 189 l29 63 5 431 5 431 26 39 c16 24 43 47
68 58 22 11 41 25 41 33 0 11 -53 13 -285 13 -223 0 -284 -3 -282 -12z"/>
<path d="M1272 1345 c-139 -31 -232 -119 -232 -218 0 -44 4 -53 39 -88 32 -33
45 -39 80 -39 23 0 55 7 72 15 60 32 87 118 54 175 -21 36 -19 77 4 90 31 16
93 12 127 -9 43 -26 67 -83 72 -167 l4 -71 -103 -32 c-254 -81 -371 -186 -372
-335 -2 -160 118 -247 320 -234 55 4 88 13 135 36 l62 31 28 -24 c51 -43 127
-55 202 -33 74 22 163 135 126 158 -8 5 -23 2 -36 -7 -28 -18 -61 -4 -69 30
-3 12 -6 137 -7 277 -3 241 -4 257 -25 296 -24 44 -66 85 -117 111 -86 44
-258 63 -364 38z m220 -577 c2 -112 0 -207 -4 -212 -4 -6 -30 -10 -56 -10 -92
0 -142 63 -142 176 0 79 23 130 79 181 37 34 91 65 113 67 3 0 8 -91 10 -202z"/>
<path d="M3024 1346 c-122 -28 -210 -95 -233 -178 -12 -41 -11 -50 7 -91 23
-52 61 -77 119 -77 49 0 95 29 116 73 22 45 21 72 -3 125 -29 65 -9 92 67 92
81 0 133 -68 141 -186 l5 -73 -44 -11 c-239 -64 -389 -164 -424 -285 -26 -87
-4 -187 52 -237 49 -44 114 -63 223 -63 99 0 110 2 170 32 l65 32 25 -24 c56
-53 173 -56 251 -6 53 33 103 116 80 130 -9 6 -23 4 -37 -6 -28 -18 -61 -4
-69 30 -3 12 -6 135 -7 272 -3 247 -3 251 -29 300 -32 63 -92 109 -176 135
-87 27 -220 34 -299 16z m218 -578 c2 -112 0 -207 -4 -212 -5 -6 -30 -10 -58
-10 -91 0 -144 64 -144 173 0 106 58 193 156 236 18 8 36 14 40 15 4 0 8 -91
10 -202z"/>
<path d="M1770 1315 c0 -8 13 -21 29 -29 15 -8 48 -37 72 -64 38 -42 63 -95
189 -406 l145 -357 75 3 74 3 131 345 c72 190 139 359 148 377 21 40 83 91
122 101 16 5 31 16 33 25 3 15 -12 17 -167 17 -157 0 -171 -1 -171 -18 0 -10
12 -22 30 -29 35 -13 70 -67 70 -109 0 -17 -27 -103 -61 -190 -33 -87 -70
-183 -81 -212 -11 -30 -24 -50 -28 -45 -18 18 -162 420 -163 454 -2 46 16 81
54 103 16 9 29 24 29 32 0 12 -41 14 -265 14 -227 0 -265 -2 -265 -15z"/>
</g>
</svg>
